<mxfile host="app.diagrams.net" agent="Mozilla/5.0 (Windows NT 10.0; Win64; x64) AppleWebKit/537.36 (KHTML, like Gecko) Chrome/134.0.0.0 Safari/537.36" version="26.1.1">
  <diagram id="C5RBs43oDa-KdzZeNtuy" name="Page-1">
    <mxGraphModel dx="1562" dy="810" grid="0" gridSize="10" guides="1" tooltips="1" connect="1" arrows="1" fold="1" page="1" pageScale="1" pageWidth="827" pageHeight="1169" math="0" shadow="0">
      <root>
        <mxCell id="WIyWlLk6GJQsqaUBKTNV-0" />
        <mxCell id="WIyWlLk6GJQsqaUBKTNV-1" parent="WIyWlLk6GJQsqaUBKTNV-0" />
        <mxCell id="JP6ADMA8bO0dgKJ-yr4d-9" value="开始" style="strokeWidth=2;html=1;shape=mxgraph.flowchart.start_1;whiteSpace=wrap;" vertex="1" parent="WIyWlLk6GJQsqaUBKTNV-1">
          <mxGeometry x="58" y="288" width="100" height="60" as="geometry" />
        </mxCell>
        <mxCell id="JP6ADMA8bO0dgKJ-yr4d-10" value="" style="endArrow=classic;html=1;rounded=0;exitX=1;exitY=0.5;exitDx=0;exitDy=0;exitPerimeter=0;" edge="1" parent="WIyWlLk6GJQsqaUBKTNV-1" source="JP6ADMA8bO0dgKJ-yr4d-9" target="JP6ADMA8bO0dgKJ-yr4d-12">
          <mxGeometry width="50" height="50" relative="1" as="geometry">
            <mxPoint x="367" y="620" as="sourcePoint" />
            <mxPoint x="384" y="383" as="targetPoint" />
          </mxGeometry>
        </mxCell>
        <mxCell id="JP6ADMA8bO0dgKJ-yr4d-11" value="" style="edgeStyle=orthogonalEdgeStyle;rounded=0;orthogonalLoop=1;jettySize=auto;html=1;" edge="1" parent="WIyWlLk6GJQsqaUBKTNV-1" source="JP6ADMA8bO0dgKJ-yr4d-12" target="JP6ADMA8bO0dgKJ-yr4d-14">
          <mxGeometry relative="1" as="geometry" />
        </mxCell>
        <mxCell id="JP6ADMA8bO0dgKJ-yr4d-12" value="&lt;span style=&quot;color: rgba(0, 0, 0, 0.9); font-family: &amp;quot;PingFang SC&amp;quot;, -apple-system, BlinkMacSystemFont, &amp;quot;Segoe UI&amp;quot;, Roboto, Ubuntu, &amp;quot;Helvetica Neue&amp;quot;, Helvetica, Arial, &amp;quot;Hiragino Sans GB&amp;quot;, &amp;quot;Microsoft YaHei UI&amp;quot;, &amp;quot;Microsoft YaHei&amp;quot;, &amp;quot;Source Han Sans CN&amp;quot;, sans-serif; font-size: 16px; text-align: start; background-color: rgb(252, 252, 252);&quot;&gt;清理上次构建生成的文件&lt;/span&gt;" style="rounded=1;whiteSpace=wrap;html=1;" vertex="1" parent="WIyWlLk6GJQsqaUBKTNV-1">
          <mxGeometry x="188" y="288" width="120" height="60" as="geometry" />
        </mxCell>
        <mxCell id="JP6ADMA8bO0dgKJ-yr4d-13" value="" style="edgeStyle=orthogonalEdgeStyle;rounded=0;orthogonalLoop=1;jettySize=auto;html=1;" edge="1" parent="WIyWlLk6GJQsqaUBKTNV-1" source="JP6ADMA8bO0dgKJ-yr4d-14" target="JP6ADMA8bO0dgKJ-yr4d-16">
          <mxGeometry relative="1" as="geometry" />
        </mxCell>
        <mxCell id="JP6ADMA8bO0dgKJ-yr4d-14" value="&lt;span style=&quot;color: rgba(0, 0, 0, 0.9); font-family: &amp;quot;PingFang SC&amp;quot;, -apple-system, BlinkMacSystemFont, &amp;quot;Segoe UI&amp;quot;, Roboto, Ubuntu, &amp;quot;Helvetica Neue&amp;quot;, Helvetica, Arial, &amp;quot;Hiragino Sans GB&amp;quot;, &amp;quot;Microsoft YaHei UI&amp;quot;, &amp;quot;Microsoft YaHei&amp;quot;, &amp;quot;Source Han Sans CN&amp;quot;, sans-serif; font-size: 16px; text-align: start; background-color: rgb(252, 252, 252);&quot;&gt;复制模板工程&lt;/span&gt;" style="whiteSpace=wrap;html=1;rounded=1;" vertex="1" parent="WIyWlLk6GJQsqaUBKTNV-1">
          <mxGeometry x="346" y="288" width="120" height="60" as="geometry" />
        </mxCell>
        <mxCell id="JP6ADMA8bO0dgKJ-yr4d-15" value="" style="edgeStyle=orthogonalEdgeStyle;rounded=0;orthogonalLoop=1;jettySize=auto;html=1;" edge="1" parent="WIyWlLk6GJQsqaUBKTNV-1" source="JP6ADMA8bO0dgKJ-yr4d-16" target="JP6ADMA8bO0dgKJ-yr4d-18">
          <mxGeometry relative="1" as="geometry" />
        </mxCell>
        <mxCell id="JP6ADMA8bO0dgKJ-yr4d-16" value="&lt;span style=&quot;color: rgba(0, 0, 0, 0.9); font-family: &amp;quot;PingFang SC&amp;quot;, -apple-system, BlinkMacSystemFont, &amp;quot;Segoe UI&amp;quot;, Roboto, Ubuntu, &amp;quot;Helvetica Neue&amp;quot;, Helvetica, Arial, &amp;quot;Hiragino Sans GB&amp;quot;, &amp;quot;Microsoft YaHei UI&amp;quot;, &amp;quot;Microsoft YaHei&amp;quot;, &amp;quot;Source Han Sans CN&amp;quot;, sans-serif; font-size: 16px; text-align: start; background-color: rgb(252, 252, 252);&quot;&gt;复制.so文件&lt;/span&gt;" style="whiteSpace=wrap;html=1;rounded=1;" vertex="1" parent="WIyWlLk6GJQsqaUBKTNV-1">
          <mxGeometry x="497" y="288" width="120" height="60" as="geometry" />
        </mxCell>
        <mxCell id="JP6ADMA8bO0dgKJ-yr4d-17" value="" style="edgeStyle=orthogonalEdgeStyle;rounded=0;orthogonalLoop=1;jettySize=auto;html=1;" edge="1" parent="WIyWlLk6GJQsqaUBKTNV-1" source="JP6ADMA8bO0dgKJ-yr4d-18" target="JP6ADMA8bO0dgKJ-yr4d-20">
          <mxGeometry relative="1" as="geometry" />
        </mxCell>
        <mxCell id="JP6ADMA8bO0dgKJ-yr4d-18" value="&lt;span style=&quot;color: rgba(0, 0, 0, 0.9); font-family: &amp;quot;PingFang SC&amp;quot;, -apple-system, BlinkMacSystemFont, &amp;quot;Segoe UI&amp;quot;, Roboto, Ubuntu, &amp;quot;Helvetica Neue&amp;quot;, Helvetica, Arial, &amp;quot;Hiragino Sans GB&amp;quot;, &amp;quot;Microsoft YaHei UI&amp;quot;, &amp;quot;Microsoft YaHei&amp;quot;, &amp;quot;Source Han Sans CN&amp;quot;, sans-serif; font-size: 16px; text-align: start; background-color: rgb(252, 252, 252);&quot;&gt;复制资源文件到rawfile目录&lt;/span&gt;" style="whiteSpace=wrap;html=1;rounded=1;" vertex="1" parent="WIyWlLk6GJQsqaUBKTNV-1">
          <mxGeometry x="655" y="288" width="120" height="60" as="geometry" />
        </mxCell>
        <mxCell id="JP6ADMA8bO0dgKJ-yr4d-19" value="" style="edgeStyle=orthogonalEdgeStyle;rounded=0;orthogonalLoop=1;jettySize=auto;html=1;" edge="1" parent="WIyWlLk6GJQsqaUBKTNV-1" source="JP6ADMA8bO0dgKJ-yr4d-20" target="JP6ADMA8bO0dgKJ-yr4d-22">
          <mxGeometry relative="1" as="geometry" />
        </mxCell>
        <mxCell id="JP6ADMA8bO0dgKJ-yr4d-20" value="&lt;span style=&quot;color: rgba(0, 0, 0, 0.9); font-family: &amp;quot;PingFang SC&amp;quot;, -apple-system, BlinkMacSystemFont, &amp;quot;Segoe UI&amp;quot;, Roboto, Ubuntu, &amp;quot;Helvetica Neue&amp;quot;, Helvetica, Arial, &amp;quot;Hiragino Sans GB&amp;quot;, &amp;quot;Microsoft YaHei UI&amp;quot;, &amp;quot;Microsoft YaHei&amp;quot;, &amp;quot;Source Han Sans CN&amp;quot;, sans-serif; font-size: 16px; text-align: start; background-color: rgb(252, 252, 252);&quot;&gt;插入UPL节点的代码至ets文件中&lt;/span&gt;" style="whiteSpace=wrap;html=1;rounded=1;" vertex="1" parent="WIyWlLk6GJQsqaUBKTNV-1">
          <mxGeometry x="655" y="404" width="120" height="60" as="geometry" />
        </mxCell>
        <mxCell id="JP6ADMA8bO0dgKJ-yr4d-21" value="" style="edgeStyle=orthogonalEdgeStyle;rounded=0;orthogonalLoop=1;jettySize=auto;html=1;" edge="1" parent="WIyWlLk6GJQsqaUBKTNV-1" source="JP6ADMA8bO0dgKJ-yr4d-22" target="JP6ADMA8bO0dgKJ-yr4d-24">
          <mxGeometry relative="1" as="geometry" />
        </mxCell>
        <mxCell id="JP6ADMA8bO0dgKJ-yr4d-22" value="&lt;span style=&quot;color: rgba(0, 0, 0, 0.9); font-family: &amp;quot;PingFang SC&amp;quot;, -apple-system, BlinkMacSystemFont, &amp;quot;Segoe UI&amp;quot;, Roboto, Ubuntu, &amp;quot;Helvetica Neue&amp;quot;, Helvetica, Arial, &amp;quot;Hiragino Sans GB&amp;quot;, &amp;quot;Microsoft YaHei UI&amp;quot;, &amp;quot;Microsoft YaHei&amp;quot;, &amp;quot;Source Han Sans CN&amp;quot;, sans-serif; font-size: 16px; text-align: start; background-color: rgb(252, 252, 252);&quot;&gt;安装har依赖包&lt;/span&gt;" style="rounded=1;whiteSpace=wrap;html=1;" vertex="1" parent="WIyWlLk6GJQsqaUBKTNV-1">
          <mxGeometry x="497" y="404" width="120" height="60" as="geometry" />
        </mxCell>
        <mxCell id="JP6ADMA8bO0dgKJ-yr4d-23" value="" style="edgeStyle=orthogonalEdgeStyle;rounded=0;orthogonalLoop=1;jettySize=auto;html=1;" edge="1" parent="WIyWlLk6GJQsqaUBKTNV-1" source="JP6ADMA8bO0dgKJ-yr4d-24" target="JP6ADMA8bO0dgKJ-yr4d-26">
          <mxGeometry relative="1" as="geometry" />
        </mxCell>
        <mxCell id="JP6ADMA8bO0dgKJ-yr4d-24" value="&lt;span style=&quot;color: rgba(0, 0, 0, 0.9); font-family: &amp;quot;PingFang SC&amp;quot;, -apple-system, BlinkMacSystemFont, &amp;quot;Segoe UI&amp;quot;, Roboto, Ubuntu, &amp;quot;Helvetica Neue&amp;quot;, Helvetica, Arial, &amp;quot;Hiragino Sans GB&amp;quot;, &amp;quot;Microsoft YaHei UI&amp;quot;, &amp;quot;Microsoft YaHei&amp;quot;, &amp;quot;Source Han Sans CN&amp;quot;, sans-serif; font-size: 16px; text-align: start; background-color: rgb(252, 252, 252);&quot;&gt;执行hvigor命令构建hap包&lt;/span&gt;" style="rounded=1;whiteSpace=wrap;html=1;" vertex="1" parent="WIyWlLk6GJQsqaUBKTNV-1">
          <mxGeometry x="339" y="404" width="120" height="60" as="geometry" />
        </mxCell>
        <mxCell id="JP6ADMA8bO0dgKJ-yr4d-25" value="" style="edgeStyle=orthogonalEdgeStyle;rounded=0;orthogonalLoop=1;jettySize=auto;html=1;" edge="1" parent="WIyWlLk6GJQsqaUBKTNV-1" source="JP6ADMA8bO0dgKJ-yr4d-26" target="JP6ADMA8bO0dgKJ-yr4d-27">
          <mxGeometry relative="1" as="geometry" />
        </mxCell>
        <mxCell id="JP6ADMA8bO0dgKJ-yr4d-26" value="&lt;span style=&quot;color: rgba(0, 0, 0, 0.9); font-family: &amp;quot;PingFang SC&amp;quot;, -apple-system, BlinkMacSystemFont, &amp;quot;Segoe UI&amp;quot;, Roboto, Ubuntu, &amp;quot;Helvetica Neue&amp;quot;, Helvetica, Arial, &amp;quot;Hiragino Sans GB&amp;quot;, &amp;quot;Microsoft YaHei UI&amp;quot;, &amp;quot;Microsoft YaHei&amp;quot;, &amp;quot;Source Han Sans CN&amp;quot;, sans-serif; font-size: 16px; text-align: start; background-color: rgb(252, 252, 252);&quot;&gt;对hap签名&lt;/span&gt;" style="whiteSpace=wrap;html=1;rounded=1;" vertex="1" parent="WIyWlLk6GJQsqaUBKTNV-1">
          <mxGeometry x="188" y="404" width="120" height="60" as="geometry" />
        </mxCell>
        <mxCell id="JP6ADMA8bO0dgKJ-yr4d-27" value="结束" style="strokeWidth=2;html=1;shape=mxgraph.flowchart.start_1;whiteSpace=wrap;" vertex="1" parent="WIyWlLk6GJQsqaUBKTNV-1">
          <mxGeometry x="60" y="404" width="100" height="60" as="geometry" />
        </mxCell>
      </root>
    </mxGraphModel>
  </diagram>
</mxfile>
